<svg width="340" height="340" viewBox="0 0 340 340" fill="none" xmlns="http://www.w3.org/2000/svg">
<path d="M102.666 311.667H82.1099C71.6237 311.67 61.3652 308.609 52.5961 302.859C43.827 297.109 36.9297 288.921 32.7527 279.303C28.5757 269.684 27.3012 259.055 29.0858 248.721C30.8704 238.388 35.6363 228.802 42.7974 221.142L58.8766 203.901C66.5333 195.69 70.7044 184.827 70.5115 173.602C70.3186 162.377 65.7767 151.664 57.8424 143.721L42.0608 127.925C40.184 125.911 39.1622 123.247 39.2108 120.494C39.2593 117.742 40.3744 115.115 42.3211 113.169C44.2678 111.222 46.8941 110.107 49.6467 110.058C52.3993 110.01 55.0633 111.032 57.0774 112.908L72.8591 128.69C84.6936 140.525 91.4706 156.493 91.7613 173.227C92.052 189.961 85.8338 206.155 74.4174 218.393L58.3241 235.634C54.0042 240.275 51.1324 246.076 50.0606 252.326C48.9888 258.575 49.7637 265.001 52.2902 270.817C54.8167 276.632 58.9851 281.584 64.2843 285.066C69.5836 288.547 75.7835 290.407 82.1241 290.417H91.7149C91.6724 286.379 91.7008 281.435 91.8849 275.783C92.3949 260.44 94.1091 239.771 98.9683 218.946C103.785 198.234 111.931 176.503 125.871 159.772C138.224 144.939 154.983 134.258 177.012 131.651V72.9584C177.012 61.1329 181.706 49.7909 190.063 41.4238C198.419 33.0566 209.755 28.3484 221.581 28.3334C232.149 28.3334 240.706 36.89 240.706 47.4584V56.6667H263.882C277.341 56.6667 289.864 63.6367 296.962 75.0834L305.745 89.25C321.215 114.226 304.555 146.2 276.094 148.608V279.792C276.094 288.238 272.742 296.339 266.773 302.316C260.805 308.292 252.708 311.655 244.262 311.667H233.637V279.792C233.638 272.817 232.267 265.91 229.599 259.466C226.932 253.022 223.021 247.166 218.091 242.233C213.16 237.299 207.306 233.386 200.863 230.715C194.42 228.044 187.515 226.669 180.54 226.667H162.832C160.014 226.667 157.311 227.786 155.319 229.779C153.326 231.771 152.207 234.474 152.207 237.292C152.207 240.11 153.326 242.812 155.319 244.805C157.311 246.797 160.014 247.917 162.832 247.917H180.54C188.991 247.92 197.095 251.28 203.07 257.258C209.044 263.235 212.401 271.34 212.401 279.792V311.667H102.666Z" fill="white"/>
</svg>
